<?xml version="1.0" encoding="UTF-8"?>
<svg xmlns="http://www.w3.org/2000/svg" xmlns:xlink="http://www.w3.org/1999/xlink" width="25px" height="28px" viewBox="0 0 25 28" version="1.1">
<g id="surface1">
<path style=" stroke:none;fill-rule:nonzero;fill:rgb(39.215687%,60.392159%,82.352942%);fill-opacity:1;" d="M 25 8.222656 C 25 7.753906 24.898438 7.339844 24.691406 6.980469 C 24.492188 6.628906 24.191406 6.335938 23.789062 6.105469 C 20.460938 4.195312 17.128906 2.289062 13.800781 0.375 C 12.90625 -0.140625 12.035156 -0.121094 11.144531 0.402344 C 9.820312 1.179688 3.1875 4.964844 1.210938 6.101562 C 0.398438 6.570312 0 7.289062 0 8.222656 C 0 12.066406 0 15.90625 0 19.75 C 0 20.210938 0.0976562 20.617188 0.292969 20.96875 C 0.492188 21.328125 0.796875 21.632812 1.210938 21.871094 C 3.1875 23.007812 9.820312 26.792969 11.144531 27.570312 C 12.035156 28.09375 12.90625 28.113281 13.800781 27.597656 C 17.128906 25.683594 20.460938 23.777344 23.789062 21.867188 C 24.203125 21.632812 24.507812 21.328125 24.707031 20.96875 C 24.902344 20.617188 25 20.207031 25 19.75 C 25 19.75 25 12.066406 25 8.222656 "/>
<path style=" stroke:none;fill-rule:nonzero;fill:rgb(0%,26.666668%,50.980395%);fill-opacity:1;" d="M 12.539062 13.949219 L 0.292969 20.96875 C 0.492188 21.328125 0.796875 21.632812 1.210938 21.871094 C 3.1875 23.007812 9.820312 26.792969 11.144531 27.570312 C 12.035156 28.09375 12.90625 28.113281 13.800781 27.597656 C 17.128906 25.683594 20.460938 23.777344 23.789062 21.867188 C 24.203125 21.632812 24.507812 21.328125 24.707031 20.96875 L 12.539062 13.949219 "/>
<path style=" stroke:none;fill-rule:nonzero;fill:rgb(10.196079%,27.450982%,45.490196%);fill-opacity:1;" d="M 8.910156 16.027344 C 9.625 17.265625 10.964844 18.101562 12.5 18.101562 C 14.046875 18.101562 15.394531 17.257812 16.101562 16.003906 L 12.539062 13.949219 L 8.910156 16.027344 "/>
<path style=" stroke:none;fill-rule:nonzero;fill:rgb(0.392157%,34.509805%,61.176473%);fill-opacity:1;" d="M 25 8.222656 C 25 7.753906 24.898438 7.339844 24.691406 6.980469 L 12.539062 13.949219 L 24.707031 20.96875 C 24.902344 20.617188 25 20.207031 25 19.75 C 25 19.75 25 12.066406 25 8.222656 "/>
<path style=" stroke:none;fill-rule:nonzero;fill:rgb(100%,100%,100%);fill-opacity:1;" d="M 24.328125 14.449219 L 23.378906 14.449219 L 23.378906 15.398438 L 22.425781 15.398438 L 22.425781 14.449219 L 21.476562 14.449219 L 21.476562 13.503906 L 22.425781 13.503906 L 22.425781 12.558594 L 23.378906 12.558594 L 23.378906 13.503906 L 24.328125 13.503906 Z M 12.5 5.722656 C 15.539062 5.722656 18.199219 7.347656 19.644531 9.777344 L 19.6875 9.851562 L 16.074219 11.921875 C 15.359375 10.695312 14.027344 9.871094 12.5 9.871094 C 10.21875 9.871094 8.367188 11.714844 8.367188 13.988281 C 8.367188 14.730469 8.566406 15.425781 8.910156 16.027344 C 9.625 17.265625 10.964844 18.101562 12.5 18.101562 C 14.027344 18.101562 15.363281 17.273438 16.078125 16.046875 L 16.101562 16.003906 L 19.710938 18.085938 C 18.28125 20.574219 15.585938 22.25 12.5 22.25 C 9.417969 22.25 6.730469 20.582031 5.296875 18.097656 C 4.597656 16.886719 4.199219 15.484375 4.199219 13.988281 C 4.199219 9.421875 7.914062 5.722656 12.5 5.722656 Z M 19.910156 12.558594 L 19.910156 13.503906 L 20.859375 13.503906 L 20.859375 14.449219 L 19.910156 14.449219 L 19.910156 15.398438 L 18.957031 15.398438 L 18.957031 14.449219 L 18.007812 14.449219 L 18.007812 13.503906 L 18.957031 13.503906 L 18.957031 12.558594 Z M 19.910156 12.558594 "/>
</g>
</svg>
