<?xml version="1.0" encoding="UTF-8"?>
<svg xmlns="http://www.w3.org/2000/svg" xmlns:xlink="http://www.w3.org/1999/xlink" width="25px" height="25px" viewBox="0 0 25 25" version="1.1">
<g id="surface1">
<path style=" stroke:none;fill-rule:nonzero;fill:rgb(87.058824%,29.803923%,21.176471%);fill-opacity:1;" d="M 24.527344 11.386719 L 13.613281 0.472656 C 12.984375 -0.15625 11.964844 -0.15625 11.335938 0.472656 L 9.070312 2.738281 L 11.945312 5.613281 C 12.613281 5.386719 13.378906 5.539062 13.914062 6.070312 C 14.449219 6.609375 14.597656 7.378906 14.367188 8.050781 L 17.136719 10.820312 C 17.808594 10.589844 18.582031 10.742188 19.117188 11.277344 C 19.863281 12.023438 19.863281 13.238281 19.117188 13.984375 C 18.367188 14.734375 17.15625 14.734375 16.40625 13.984375 C 15.84375 13.421875 15.703125 12.59375 15.988281 11.902344 L 13.40625 9.316406 L 13.40625 16.117188 C 13.589844 16.207031 13.761719 16.328125 13.914062 16.480469 C 14.660156 17.230469 14.660156 18.441406 13.914062 19.191406 C 13.164062 19.9375 11.949219 19.9375 11.203125 19.191406 C 10.453125 18.441406 10.453125 17.230469 11.203125 16.480469 C 11.386719 16.296875 11.601562 16.15625 11.832031 16.0625 L 11.832031 9.199219 C 11.601562 9.105469 11.386719 8.964844 11.203125 8.78125 C 10.636719 8.214844 10.5 7.382812 10.789062 6.6875 L 7.957031 3.851562 L 0.472656 11.335938 C -0.15625 11.964844 -0.15625 12.984375 0.472656 13.613281 L 11.386719 24.527344 C 12.015625 25.15625 13.035156 25.15625 13.664062 24.527344 L 24.527344 13.664062 C 25.15625 13.035156 25.15625 12.015625 24.527344 11.386719 "/>
</g>
</svg>
