<?xml version="1.0" encoding="UTF-8"?>
<svg xmlns="http://www.w3.org/2000/svg" xmlns:xlink="http://www.w3.org/1999/xlink" width="25px" height="34px" viewBox="0 0 25 33" version="1.1">
<g id="surface1">
<path style=" stroke:none;fill-rule:nonzero;fill:rgb(32.549021%,50.980395%,63.137257%);fill-opacity:1;" d="M 8.0625 25.511719 C 8.0625 25.511719 6.773438 26.242188 8.980469 26.488281 C 11.652344 26.789062 13.019531 26.746094 15.964844 26.199219 C 15.964844 26.199219 16.738281 26.675781 17.820312 27.085938 C 11.214844 29.847656 2.875 26.925781 8.0625 25.511719 "/>
<path style=" stroke:none;fill-rule:nonzero;fill:rgb(32.549021%,50.980395%,63.137257%);fill-opacity:1;" d="M 7.253906 21.902344 C 7.253906 21.902344 5.808594 22.949219 8.015625 23.171875 C 10.871094 23.460938 13.128906 23.484375 17.027344 22.75 C 17.027344 22.75 17.566406 23.285156 18.417969 23.574219 C 10.433594 25.855469 1.542969 23.753906 7.253906 21.902344 "/>
<path style=" stroke:none;fill-rule:nonzero;fill:rgb(90.588236%,43.529412%,0%);fill-opacity:1;" d="M 14.058594 15.785156 C 15.683594 17.617188 13.628906 19.261719 13.628906 19.261719 C 13.628906 19.261719 17.761719 17.179688 15.863281 14.570312 C 14.089844 12.136719 12.734375 10.929688 20.089844 6.761719 C 20.089844 6.761719 8.542969 9.578125 14.058594 15.785156 "/>
<path style=" stroke:none;fill-rule:nonzero;fill:rgb(32.549021%,50.980395%,63.137257%);fill-opacity:1;" d="M 22.789062 28.179688 C 22.789062 28.179688 23.742188 28.945312 21.738281 29.539062 C 17.929688 30.667969 5.875 31.007812 2.527344 29.585938 C 1.324219 29.074219 3.582031 28.363281 4.292969 28.214844 C 5.03125 28.058594 5.457031 28.085938 5.457031 28.085938 C 4.117188 27.167969 -3.195312 29.894531 1.742188 30.675781 C 15.203125 32.808594 26.28125 29.714844 22.789062 28.179688 "/>
<path style=" stroke:none;fill-rule:nonzero;fill:rgb(32.549021%,50.980395%,63.137257%);fill-opacity:1;" d="M 8.683594 18.167969 C 8.683594 18.167969 2.550781 19.589844 6.511719 20.105469 C 8.183594 20.324219 11.515625 20.273438 14.621094 20.019531 C 17.15625 19.8125 19.703125 19.367188 19.703125 19.367188 C 19.703125 19.367188 18.808594 19.742188 18.160156 20.171875 C 11.9375 21.773438 -0.0898438 21.027344 3.375 19.390625 C 6.300781 18.011719 8.683594 18.167969 8.683594 18.167969 "/>
<path style=" stroke:none;fill-rule:nonzero;fill:rgb(32.549021%,50.980395%,63.137257%);fill-opacity:1;" d="M 19.679688 24.171875 C 26.007812 20.957031 23.082031 17.871094 21.039062 18.289062 C 20.539062 18.390625 20.316406 18.476562 20.316406 18.476562 C 20.316406 18.476562 20.5 18.195312 20.855469 18.070312 C 24.894531 16.683594 28.003906 22.164062 19.550781 24.332031 C 19.550781 24.332031 19.648438 24.246094 19.679688 24.171875 "/>
<path style=" stroke:none;fill-rule:nonzero;fill:rgb(90.588236%,43.529412%,0%);fill-opacity:1;" d="M 15.863281 0.0351562 C 15.863281 0.0351562 19.367188 3.460938 12.539062 8.722656 C 7.0625 12.949219 11.289062 15.355469 12.535156 18.105469 C 9.339844 15.289062 6.996094 12.8125 8.570312 10.503906 C 10.878906 7.117188 17.277344 5.472656 15.863281 0.0351562 "/>
<path style=" stroke:none;fill-rule:nonzero;fill:rgb(32.549021%,50.980395%,63.137257%);fill-opacity:1;" d="M 9.304688 32.871094 C 15.378906 33.253906 24.707031 32.660156 24.925781 29.855469 C 24.925781 29.855469 24.5 30.917969 19.90625 31.765625 C 14.722656 32.71875 8.328125 32.605469 4.535156 31.996094 C 4.535156 31.996094 5.3125 32.621094 9.304688 32.871094 "/>
</g>
</svg>
