<?xml version="1.0" encoding="UTF-8"?>
<svg xmlns="http://www.w3.org/2000/svg" xmlns:xlink="http://www.w3.org/1999/xlink" width="25px" height="25px" viewBox="0 0 25 25" version="1.1">
<g id="surface1">
<path style=" stroke:none;fill-rule:nonzero;fill:rgb(3.921569%,40.000001%,76.078433%);fill-opacity:1;" d="M 21.300781 21.300781 L 17.597656 21.300781 L 17.597656 15.5 C 17.597656 14.117188 17.570312 12.335938 15.671875 12.335938 C 13.742188 12.335938 13.445312 13.84375 13.445312 15.398438 L 13.445312 21.300781 L 9.742188 21.300781 L 9.742188 9.371094 L 13.296875 9.371094 L 13.296875 11.003906 L 13.347656 11.003906 C 14.074219 9.761719 15.421875 9.023438 16.855469 9.074219 C 20.609375 9.074219 21.300781 11.542969 21.300781 14.757812 Z M 5.5625 7.742188 C 4.375 7.742188 3.414062 6.777344 3.410156 5.59375 C 3.410156 4.40625 4.375 3.441406 5.5625 3.441406 C 6.75 3.441406 7.710938 4.402344 7.710938 5.589844 C 7.710938 6.160156 7.484375 6.707031 7.082031 7.109375 C 6.679688 7.515625 6.132812 7.742188 5.5625 7.742188 M 7.414062 21.300781 L 3.707031 21.300781 L 3.707031 9.371094 L 7.414062 9.371094 Z M 23.148438 0 L 1.84375 0 C 0.835938 -0.0078125 0.0117188 0.796875 0 1.804688 L 0 23.195312 C 0.0117188 24.203125 0.835938 25.011719 1.84375 25 L 23.148438 25 C 24.15625 25.011719 24.984375 24.203125 25 23.195312 L 25 1.800781 C 24.984375 0.792969 24.15625 -0.0117188 23.148438 0 "/>
</g>
</svg>
