<?xml version="1.0" encoding="UTF-8"?>
<svg xmlns="http://www.w3.org/2000/svg" xmlns:xlink="http://www.w3.org/1999/xlink" width="25px" height="25px" viewBox="0 0 25 25" version="1.1">
<defs>
<linearGradient id="linear0" gradientUnits="userSpaceOnUse" x1="-1845.500732" y1="1255.63916" x2="-1797.133911" y2="981.337891" gradientTransform="matrix(-0.0976562,0,0,-0.0976562,-165.352607,121.728945)">
<stop offset="0" style="stop-color:rgb(98.039216%,68.235294%,25.882353%);stop-opacity:1;"/>
<stop offset="1" style="stop-color:rgb(93.72549%,24.313725%,19.215686%);stop-opacity:1;"/>
</linearGradient>
<linearGradient id="linear1" gradientUnits="userSpaceOnUse" x1="130.611694" y1="4.1363" x2="95.212997" y2="204.8927" gradientTransform="matrix(0.0976562,0,0,0.0976562,0,0)">
<stop offset="0" style="stop-color:rgb(89.019608%,62.352941%,22.745098%);stop-opacity:1;"/>
<stop offset="1" style="stop-color:rgb(82.745098%,22.352941%,16.078431%);stop-opacity:1;"/>
</linearGradient>
</defs>
<g id="surface1">
<path style=" stroke:none;fill-rule:nonzero;fill:url(#linear0);" d="M 5.554688 0 C 5.703125 0 19.160156 0 19.40625 0 C 20.078125 0 20.734375 0.109375 21.367188 0.332031 C 22.285156 0.664062 23.117188 1.25 23.742188 2.011719 C 24.375 2.773438 24.796875 3.710938 24.941406 4.6875 C 25 5.046875 25.011719 5.410156 25.011719 5.773438 C 25.011719 6.101562 25.011719 17.804688 25.011719 18.328125 C 25.011719 18.640625 25.011719 18.964844 25.011719 19.277344 C 25.011719 19.707031 24.992188 20.148438 24.902344 20.566406 C 24.707031 21.53125 24.25 22.441406 23.585938 23.171875 C 22.929688 23.90625 22.070312 24.453125 21.144531 24.746094 C 20.578125 24.921875 19.992188 25 19.394531 25 C 19.132812 25 5.519531 25 5.3125 24.988281 C 4.316406 24.941406 3.332031 24.617188 2.5 24.0625 C 1.691406 23.515625 1.027344 22.753906 0.597656 21.875 C 0.226562 21.121094 0.0390625 20.28125 0.0390625 19.441406 C 0.0390625 19.246094 0.0390625 5.75 0.0390625 5.554688 C 0.0195312 4.726562 0.195312 3.90625 0.554688 3.164062 C 0.976562 2.285156 1.632812 1.515625 2.441406 0.964844 C 3.273438 0.398438 4.25 0.0664062 5.242188 0.0195312 C 5.34375 0 5.449219 0 5.554688 0 Z M 5.554688 0 "/>
<path style=" stroke:none;fill-rule:nonzero;fill:url(#linear1);" d="M 21.09375 20.449219 C 21.007812 20.3125 20.90625 20.175781 20.800781 20.046875 C 20.554688 19.757812 20.273438 19.5 19.960938 19.289062 C 19.570312 19.023438 19.109375 18.859375 18.640625 18.835938 C 18.3125 18.820312 17.976562 18.875 17.664062 18.992188 C 17.351562 19.101562 17.050781 19.257812 16.757812 19.414062 C 16.414062 19.589844 16.074219 19.765625 15.710938 19.914062 C 15.28125 20.085938 14.835938 20.226562 14.375 20.320312 C 13.800781 20.429688 13.214844 20.46875 12.636719 20.460938 C 11.59375 20.4375 10.546875 20.28125 9.550781 19.992188 C 8.671875 19.726562 7.832031 19.367188 7.042969 18.90625 C 6.347656 18.507812 5.703125 18.046875 5.097656 17.53125 C 4.601562 17.101562 4.140625 16.640625 3.710938 16.152344 C 3.417969 15.8125 3.136719 15.449219 2.871094 15.078125 C 2.765625 14.929688 2.667969 14.777344 2.578125 14.621094 L 0 11.835938 L 0 5.539062 C 0 2.480469 2.46875 0 5.527344 0 L 10.460938 0 L 14.109375 3.710938 C 22.351562 9.316406 19.6875 15.496094 19.6875 15.496094 C 19.6875 15.496094 22.03125 18.132812 21.09375 20.449219 Z M 21.09375 20.449219 "/>
<path style=" stroke:none;fill-rule:nonzero;fill:rgb(100%,100%,100%);fill-opacity:1;" d="M 14.128906 3.710938 C 22.375 9.316406 19.707031 15.496094 19.707031 15.496094 C 19.707031 15.496094 22.050781 18.144531 21.101562 20.460938 C 21.101562 20.460938 20.136719 18.835938 18.515625 18.835938 C 16.953125 18.835938 16.035156 20.460938 12.890625 20.460938 C 5.890625 20.460938 2.578125 14.609375 2.578125 14.609375 C 8.886719 18.757812 13.195312 15.820312 13.195312 15.820312 C 10.351562 14.171875 4.304688 6.28125 4.304688 6.28125 C 9.570312 10.761719 11.84375 11.945312 11.84375 11.945312 C 10.488281 10.820312 6.679688 5.332031 6.679688 5.332031 C 9.726562 8.417969 15.78125 12.726562 15.78125 12.726562 C 17.5 7.960938 14.128906 3.710938 14.128906 3.710938 Z M 14.128906 3.710938 "/>
</g>
</svg>
