<?xml version="1.0" encoding="UTF-8"?>
<svg xmlns="http://www.w3.org/2000/svg" xmlns:xlink="http://www.w3.org/1999/xlink" width="25px" height="25px" viewBox="0 0 25 25" version="1.1">
<g id="surface1">
<path style=" stroke:none;fill-rule:nonzero;fill:rgb(0%,0%,0%);fill-opacity:1;" d="M 0.0078125 0.347656 C -0.0429688 0.136719 0.152344 -0.046875 0.359375 0.0117188 L 6.4375 1.742188 C 6.492188 1.742188 6.546875 1.753906 6.589844 1.785156 L 18.578125 5.195312 C 18.625 5.195312 18.675781 5.210938 18.71875 5.234375 L 24.796875 6.964844 C 25.003906 7.023438 25.070312 7.285156 24.914062 7.433594 L 6.574219 24.871094 C 6.417969 25.019531 6.15625 24.945312 6.105469 24.738281 L 3.0625 12.5625 C 3.058594 12.550781 3.054688 12.539062 3.050781 12.523438 Z M 5.214844 18.851562 L 6.535156 24.132812 L 10.511719 20.355469 Z M 9.308594 14.671875 L 5.460938 18.339844 L 10.589844 19.796875 Z M 9.882812 14.632812 L 11.15625 19.738281 L 14.996094 16.089844 Z M 3.722656 12.878906 L 5.003906 18.003906 L 8.847656 14.339844 Z M 13.847656 10.34375 L 9.9375 14.070312 L 15.148438 15.554688 Z M 14.398438 10.210938 L 15.699219 15.421875 L 19.621094 11.691406 Z M 7.796875 8.613281 L 3.878906 12.34375 L 9.101562 13.832031 Z M 8.34375 8.472656 L 9.621094 13.59375 L 13.472656 9.929688 Z M 2.1875 6.734375 L 3.488281 11.941406 L 7.402344 8.214844 Z M 18.414062 6.011719 L 14.566406 9.679688 L 19.695312 11.132812 Z M 18.964844 5.886719 L 20.261719 11.082031 L 24.167969 7.367188 Z M 12.339844 4.292969 L 8.507812 7.9375 L 13.609375 9.386719 Z M 12.886719 4.15625 L 14.167969 9.285156 L 18.015625 5.617188 Z M 6.28125 2.554688 L 2.433594 6.222656 L 7.5625 7.679688 Z M 6.832031 2.433594 L 8.109375 7.542969 L 11.949219 3.890625 Z M 0.671875 0.679688 L 1.972656 5.886719 L 5.882812 2.164062 Z M 0.671875 0.679688 "/>
</g>
</svg>
