<?xml version="1.0" encoding="UTF-8"?>
<svg xmlns="http://www.w3.org/2000/svg" xmlns:xlink="http://www.w3.org/1999/xlink" width="25px" height="25px" viewBox="0 0 25 25" version="1.1">
<g id="surface1">
<path style=" stroke:none;fill-rule:nonzero;fill:rgb(19.215687%,47.058824%,77.64706%);fill-opacity:1;" d="M 1.953125 0 L 23.046875 0 C 24.125 0 25 0.875 25 1.953125 L 25 23.046875 C 25 24.125 24.125 25 23.046875 25 L 1.953125 25 C 0.875 25 0 24.125 0 23.046875 L 0 1.953125 C 0 0.875 0.875 0 1.953125 0 Z M 1.953125 0 "/>
<path style=" stroke:none;fill-rule:nonzero;fill:rgb(100%,100%,100%);fill-opacity:1;" d="M 14.699219 19.578125 L 14.699219 22.273438 C 15.136719 22.5 15.65625 22.667969 16.253906 22.78125 C 16.855469 22.894531 17.484375 22.949219 18.148438 22.949219 C 18.796875 22.949219 19.410156 22.886719 19.992188 22.765625 C 20.574219 22.640625 21.085938 22.4375 21.523438 22.152344 C 21.960938 21.867188 22.308594 21.5 22.566406 21.039062 C 22.820312 20.582031 22.949219 20.015625 22.949219 19.339844 C 22.949219 18.851562 22.875 18.425781 22.730469 18.054688 C 22.582031 17.6875 22.371094 17.359375 22.097656 17.074219 C 21.820312 16.789062 21.492188 16.53125 21.105469 16.304688 C 20.722656 16.074219 20.285156 15.859375 19.800781 15.660156 C 19.449219 15.511719 19.128906 15.371094 18.847656 15.234375 C 18.566406 15.09375 18.328125 14.953125 18.132812 14.8125 C 17.9375 14.667969 17.785156 14.515625 17.675781 14.355469 C 17.570312 14.195312 17.515625 14.015625 17.515625 13.8125 C 17.515625 13.625 17.5625 13.460938 17.660156 13.3125 C 17.753906 13.160156 17.890625 13.035156 18.066406 12.925781 C 18.238281 12.820312 18.453125 12.738281 18.707031 12.679688 C 18.960938 12.621094 19.242188 12.589844 19.550781 12.589844 C 19.773438 12.589844 20.011719 12.605469 20.261719 12.640625 C 20.511719 12.675781 20.765625 12.726562 21.015625 12.796875 C 21.269531 12.867188 21.515625 12.957031 21.753906 13.0625 C 21.996094 13.167969 22.214844 13.292969 22.417969 13.433594 L 22.417969 10.914062 C 22.007812 10.753906 21.558594 10.640625 21.070312 10.5625 C 20.585938 10.488281 20.027344 10.449219 19.398438 10.449219 C 18.757812 10.449219 18.148438 10.519531 17.574219 10.65625 C 17.003906 10.792969 16.496094 11.007812 16.0625 11.300781 C 15.625 11.59375 15.28125 11.964844 15.027344 12.417969 C 14.773438 12.871094 14.648438 13.410156 14.648438 14.039062 C 14.648438 14.84375 14.878906 15.527344 15.34375 16.097656 C 15.808594 16.664062 16.511719 17.144531 17.457031 17.539062 C 17.828125 17.691406 18.175781 17.839844 18.496094 17.984375 C 18.816406 18.128906 19.09375 18.28125 19.324219 18.441406 C 19.558594 18.597656 19.742188 18.769531 19.878906 18.953125 C 20.011719 19.140625 20.082031 19.351562 20.082031 19.585938 C 20.082031 19.761719 20.039062 19.921875 19.953125 20.070312 C 19.871094 20.21875 19.742188 20.347656 19.570312 20.457031 C 19.398438 20.566406 19.183594 20.652344 18.929688 20.714844 C 18.671875 20.777344 18.375 20.808594 18.03125 20.808594 C 17.445312 20.808594 16.867188 20.707031 16.292969 20.5 C 15.71875 20.296875 15.1875 19.988281 14.699219 19.578125 Z M 10.203125 12.867188 L 13.671875 12.867188 L 13.671875 10.644531 L 4.003906 10.644531 L 4.003906 12.867188 L 7.457031 12.867188 L 7.457031 22.753906 L 10.203125 22.753906 Z M 10.203125 12.867188 "/>
</g>
</svg>
